<svg width="14" height="14" viewBox="0 0 14 14" fill="none" xmlns="http://www.w3.org/2000/svg">
<path d="M11.6663 11.6668L2.33301 2.3335M11.6664 2.3335L2.33301 11.6669" stroke="#545454" stroke-opacity="0.4" stroke-width="1.7" stroke-linecap="round" stroke-linejoin="round"/>
<path fill-rule="evenodd" clip-rule="evenodd" d="M1.89769 1.89769C2.09461 1.70077 2.41387 1.70077 2.61079 1.89769L7.00004 6.28694L11.3893 1.89769C11.5862 1.70077 11.9055 1.70077 12.1024 1.89769C12.2993 2.09461 12.2993 2.41387 12.1024 2.61079L7.71315 7.00004L12.1023 11.3892C12.2993 11.5862 12.2993 11.9054 12.1023 12.1023C11.9054 12.2993 11.5862 12.2993 11.3892 12.1023L7.00004 7.71315L2.61079 12.1024C2.41387 12.2993 2.09461 12.2993 1.89769 12.1024C1.70077 11.9055 1.70077 11.5862 1.89769 11.3893L6.28694 7.00004L1.89769 2.61079C1.70077 2.41387 1.70077 2.09461 1.89769 1.89769Z" fill="#545454" fill-opacity="0.4"/>
</svg>
