<svg width="24" height="24" viewBox="0 0 24 24" fill="none" xmlns="http://www.w3.org/2000/svg">
<path fill-rule="evenodd" clip-rule="evenodd" d="M12 3.72589C10.3347 3.72589 8.73947 4.37776 7.5648 5.5351C6.39046 6.69212 5.73248 8.25934 5.73248 9.89145C5.73248 12.7402 7.34953 15.3517 9.08367 17.3166C9.93976 18.2865 10.7981 19.0691 11.4428 19.6089C11.655 19.7867 11.8434 19.9375 12 20.0595C12.1566 19.9375 12.345 19.7867 12.5572 19.6089C13.2019 19.0691 14.0602 18.2865 14.9163 17.3166C16.6505 15.3517 18.2675 12.7402 18.2675 9.89145C18.2675 8.25934 17.6095 6.69212 16.4352 5.5351C15.2605 4.37776 13.6653 3.72589 12 3.72589ZM12 21.1371C11.5069 21.8466 11.5067 21.8464 11.5064 21.8462L11.5058 21.8458L11.5039 21.8445L11.4984 21.8406L11.4796 21.8275C11.4638 21.8163 11.4414 21.8005 11.4128 21.7799C11.3557 21.7388 11.274 21.6791 11.1711 21.6017C10.9655 21.4469 10.675 21.2207 10.3279 20.93C9.63497 20.3497 8.70992 19.5069 7.78257 18.4562C5.94983 16.3796 4 13.3683 4 9.89145C4 7.79541 4.84521 5.78717 6.34654 4.30799C7.84755 2.82913 9.88134 2 12 2C14.1187 2 16.1525 2.82913 17.6535 4.30799C19.1548 5.78717 20 7.79541 20 9.89145C20 13.3683 18.0502 16.3796 16.2174 18.4562C15.2901 19.5069 14.365 20.3497 13.6721 20.93C13.325 21.2207 13.0345 21.4469 12.8289 21.6017C12.726 21.6791 12.6443 21.7388 12.5872 21.7799C12.5586 21.8005 12.5362 21.8163 12.5204 21.8275L12.5016 21.8406L12.4961 21.8445L12.4942 21.8458L12.4936 21.8462C12.4933 21.8464 12.4931 21.8466 12 21.1371ZM12 21.1371L12.4931 21.8466C12.1964 22.0511 11.8036 22.0511 11.5069 21.8466L12 21.1371ZM12 7.7868C11.3527 7.7868 10.828 8.30951 10.828 8.95431C10.828 9.59911 11.3527 10.1218 12 10.1218C12.6473 10.1218 13.172 9.59911 13.172 8.95431C13.172 8.30951 12.6473 7.7868 12 7.7868ZM9.09554 8.95431C9.09554 7.35633 10.3959 6.06091 12 6.06091C13.6041 6.06091 14.9045 7.35633 14.9045 8.95431C14.9045 10.5523 13.6041 11.8477 12 11.8477C10.3959 11.8477 9.09554 10.5523 9.09554 8.95431Z" fill="#4BB08C"/>
</svg>
