<svg width="24" height="24" viewBox="0 0 24 24" fill="none" xmlns="http://www.w3.org/2000/svg">
<path fill-rule="evenodd" clip-rule="evenodd" d="M3 5.50788C3 4.12282 4.12282 3 5.50788 3H8.02167C9.08648 3 10.044 3.64828 10.4395 4.63694L11.4028 7.04515C11.758 7.93323 11.5978 8.94457 10.9854 9.67936L10.467 10.3015C10.1191 10.719 10.147 11.3329 10.5312 11.7172L12.2828 13.4688C12.6671 13.853 13.281 13.8809 13.6985 13.533L14.3206 13.0146C15.0554 12.4022 16.0668 12.242 16.9548 12.5972L19.3631 13.5605C20.3517 13.956 21 14.9135 21 15.9783V18.4921C21 19.8772 19.8772 21 18.4921 21C9.93606 21 3 14.0639 3 5.50788ZM5.50788 4.5533C4.98068 4.5533 4.5533 4.98068 4.5533 5.50788C4.5533 13.2061 10.7939 19.4467 18.4921 19.4467C19.0193 19.4467 19.4467 19.0193 19.4467 18.4921V15.9783C19.4467 15.5487 19.1851 15.1623 18.7862 15.0027L16.378 14.0394C16.0196 13.8961 15.6115 13.9607 15.315 14.2078L14.6929 14.7263C13.6583 15.5885 12.1369 15.5195 11.1845 14.5671L9.43289 12.8155C8.48054 11.8632 8.41152 10.3417 9.27374 9.30707L9.79217 8.68496C10.0392 8.38847 10.1039 7.98038 9.96056 7.62204L8.99727 5.21382C8.8377 4.81489 8.45133 4.5533 8.02167 4.5533H5.50788Z" fill="#4BB08C"/>
</svg>
