<svg width="50" height="50" viewBox="0 0 50 50" fill="none" xmlns="http://www.w3.org/2000/svg">
<path d="M49.544 47.3307L35.7702 33.4219C38.7198 29.8856 40.4952 25.3256 40.4952 20.346C40.4952 9.10904 31.4673 0 20.2717 0C9.076 0 0 9.10899 0 20.3452C0 31.5814 9.0761 40.6904 20.2717 40.6904C25.382 40.6904 30.0377 38.7874 33.5915 35.656L47.3411 49.5422C47.9492 50.1526 48.9359 50.1526 49.5432 49.5422C50.1521 48.9311 50.1521 47.9418 49.544 47.3306L49.544 47.3307ZM20.2454 37.5114C10.8259 37.5114 3.1148 29.7723 3.1148 20.3187C3.1148 10.8651 10.8259 3.12604 20.2454 3.12604C29.6649 3.12604 37.376 10.8651 37.376 20.3187C37.376 29.7723 29.6649 37.5114 20.2454 37.5114ZM28.032 18.7557H21.8027V12.5039C21.8027 11.6411 21.105 10.9409 20.2454 10.9409C19.3857 10.9409 18.6881 11.6411 18.6881 12.5039V18.7557H12.4588C11.5991 18.7557 10.9014 19.456 10.9014 20.3187C10.9014 21.1815 11.5991 21.8817 12.4588 21.8817H18.6881V28.1336C18.6881 28.9963 19.3857 29.6965 20.2454 29.6965C21.105 29.6965 21.8027 28.9963 21.8027 28.1336V21.8817H28.032C28.8917 21.8817 29.5893 21.1815 29.5893 20.3187C29.5893 19.456 28.8924 18.7557 28.032 18.7557Z" fill="white"/>
</svg>