<svg width="25" height="26" viewBox="0 0 25 26" fill="none" xmlns="http://www.w3.org/2000/svg">
<path d="M11.4422 1.30434C11.7752 0.231885 13.2248 0.231887 13.5578 1.30434L15.7461 8.35354C15.895 8.83315 16.3221 9.15788 16.8039 9.15788H23.8857C24.9631 9.15788 25.411 10.6009 24.5394 11.2637L18.8101 15.6203C18.4203 15.9167 18.2572 16.4421 18.4061 16.9218L20.5945 23.971C20.9274 25.0434 19.7546 25.9352 18.883 25.2724L13.1537 20.9158C12.7639 20.6193 12.2361 20.6193 11.8463 20.9158L6.117 25.2724C5.24536 25.9352 4.07257 25.0434 4.40551 23.971L6.59389 16.9218C6.74279 16.4421 6.57967 15.9167 6.18986 15.6203L0.460595 11.2637C-0.411048 10.6009 0.0369184 9.15788 1.11433 9.15788H8.19609C8.67792 9.15788 9.10496 8.83315 9.25385 8.35353L11.4422 1.30434Z" fill="#4BB08C"/>
</svg>
