<svg width="24" height="24" viewBox="0 0 24 24" fill="none" xmlns="http://www.w3.org/2000/svg">
<path d="M2.27177 11.4349C4.11321 10.3327 6.16877 9.41271 8.08938 8.48805C11.3936 6.97352 14.7109 5.48525 18.0617 4.09968C18.7137 3.8636 19.885 3.63272 19.9999 4.68263C19.937 6.16876 19.6783 7.64619 19.5008 9.12363C19.0504 12.3726 18.5297 15.6105 18.0221 18.8488C17.8471 19.9275 16.6037 20.4859 15.8081 19.7956C13.896 18.3921 11.9692 17.0022 10.0815 15.5662C9.46319 14.8834 10.0366 13.9029 10.5888 13.4153C12.1637 11.7287 13.8338 10.2958 15.3264 8.52207C15.729 7.46553 14.5394 8.35595 14.147 8.62877C11.9911 10.2433 9.88785 11.9564 7.61478 13.3753C6.45369 14.0699 5.10043 13.4763 3.93987 13.0887C2.89928 12.6206 1.37454 12.1488 2.27177 11.4349Z" fill="#4BB08C"/>
</svg>
