<svg width="24" height="24" viewBox="0 0 24 24" fill="none" xmlns="http://www.w3.org/2000/svg">
<path d="M19.7929 14.3042C18.1129 12.6717 18.3274 12.9202 20.3648 10.1166C21.5801 8.41319 22.0806 7.34855 21.9376 6.8872C21.8661 6.6033 20.901 6.67427 20.901 6.67427H17.8984C17.8984 6.67427 17.4338 6.67427 17.255 6.99366C16.9333 7.59696 16.7904 8.34221 16.1469 9.44234C14.7887 11.82 14.2525 11.962 14.038 11.82C13.5376 11.4652 13.6448 10.436 13.6448 9.69075C13.6448 7.38403 13.9665 6.42586 13.0014 6.14195C12.787 6.07098 12.6082 6.07098 12.2865 6.03549C11.8933 6 11.5001 6 11.1427 6C10.2491 6 9.56993 6.03549 9.10525 6.24842C8.7478 6.42586 8.49759 6.81622 8.67631 6.85171C8.89078 6.8872 9.31972 6.99366 9.56993 7.31306C9.89163 7.73891 9.85589 8.73258 9.85589 8.73258C9.85589 8.73258 10.0346 11.4652 9.42695 11.7845C9.03376 12.033 8.46184 11.5361 7.28227 9.37136C6.67461 8.27123 6.60312 7.52599 6.20993 7.02915C5.95972 6.70976 5.49504 6.6033 5.49504 6.6033H2.63546C2.63546 6.6033 2.13504 6.56781 2.06355 6.70976C1.92057 6.8872 2.06355 7.24208 2.06355 7.24208C2.06355 7.24208 4.31546 12.7427 6.85333 15.5108C9.10525 18.1369 11.7504 17.995 11.7504 17.995C11.7504 17.995 13.2874 18.0659 13.5018 17.6756C13.6448 17.5336 13.6806 17.1078 13.6806 17.1078C13.6806 17.1078 13.6448 15.4043 14.3955 15.1559C15.1461 14.9075 16.0755 16.7884 17.0763 17.4981C17.8269 18.0659 18.0414 17.995 18.3989 17.995C19.1138 17.995 21.0797 17.995 21.0797 17.995C21.0797 17.995 22.4738 17.853 21.8304 16.6819C21.7231 16.6109 21.4014 15.8657 19.7929 14.3042Z" fill="#4BB08C"/>
</svg>
