<svg width="24" height="25" viewBox="0 0 24 25" fill="none" xmlns="http://www.w3.org/2000/svg">
<path d="M19.7929 15.1724C18.1129 13.5399 18.3274 13.7883 20.3648 10.9848C21.5801 9.28135 22.0806 8.21671 21.9376 7.75536C21.8661 7.47146 20.901 7.54244 20.901 7.54244H17.8984C17.8984 7.54244 17.4338 7.54244 17.255 7.86183C16.9333 8.46513 16.7904 9.21037 16.1469 10.3105C14.7887 12.6882 14.2525 12.8302 14.038 12.6882C13.5376 12.3333 13.6448 11.3042 13.6448 10.5589C13.6448 8.2522 13.9665 7.29402 13.0014 7.01012C12.787 6.93914 12.6082 6.93914 12.2865 6.90365C11.8933 6.86816 11.5001 6.86816 11.1427 6.86816C10.2491 6.86816 9.56993 6.90365 9.10525 7.11658C8.7478 7.29402 8.49759 7.68439 8.67631 7.71988C8.89078 7.75536 9.31972 7.86183 9.56993 8.18122C9.89163 8.60708 9.85589 9.60074 9.85589 9.60074C9.85589 9.60074 10.0346 12.3333 9.42695 12.6527C9.03376 12.9011 8.46184 12.4043 7.28227 10.2395C6.67461 9.1394 6.60312 8.39415 6.20993 7.89732C5.95972 7.57792 5.49504 7.47146 5.49504 7.47146H2.63546C2.63546 7.47146 2.13504 7.43597 2.06355 7.57792C1.92057 7.75536 2.06355 8.11024 2.06355 8.11024C2.06355 8.11024 4.31546 13.6109 6.85333 16.379C9.10525 19.0051 11.7504 18.8631 11.7504 18.8631C11.7504 18.8631 13.2874 18.9341 13.5018 18.5437C13.6448 18.4018 13.6806 17.9759 13.6806 17.9759C13.6806 17.9759 13.6448 16.2725 14.3955 16.0241C15.1461 15.7757 16.0755 17.6565 17.0763 18.3663C17.8269 18.9341 18.0414 18.8631 18.3989 18.8631C19.1138 18.8631 21.0797 18.8631 21.0797 18.8631C21.0797 18.8631 22.4738 18.7212 21.8304 17.5501C21.7231 17.4791 21.4014 16.7338 19.7929 15.1724Z" fill="#4BB08C"/>
</svg>
