<svg width="24" height="18" viewBox="0 0 24 18" fill="none" xmlns="http://www.w3.org/2000/svg">
<path d="M9.6 12.8571L15.828 9L9.6 5.14286V12.8571ZM23.472 2.79C23.628 3.39429 23.736 4.20429 23.808 5.23286C23.892 6.26143 23.928 7.14857 23.928 7.92L24 9C24 11.8157 23.808 13.8857 23.472 15.21C23.172 16.3671 22.476 17.1129 21.396 17.4343C20.832 17.6014 19.8 17.7171 18.216 17.7943C16.656 17.8843 15.228 17.9229 13.908 17.9229L12 18C6.972 18 3.84 17.7943 2.604 17.4343C1.524 17.1129 0.828 16.3671 0.528 15.21C0.372 14.6057 0.264 13.7957 0.192 12.7671C0.108 11.7386 0.0719999 10.8514 0.0719999 10.08L0 9C0 6.18429 0.192 4.11429 0.528 2.79C0.828 1.63286 1.524 0.887143 2.604 0.565714C3.168 0.398571 4.2 0.282857 5.784 0.205714C7.344 0.115714 8.772 0.0771428 10.092 0.0771428L12 0C17.028 0 20.16 0.205714 21.396 0.565714C22.476 0.887143 23.172 1.63286 23.472 2.79Z" fill="#4BB08C"/>
</svg>
