<svg width="38" height="29" viewBox="0 0 38 29" fill="none" xmlns="http://www.w3.org/2000/svg">
<path d="M22.2232 0.0759449C21.213 0.187355 20.1658 0.42503 19.1334 0.796394L18.1678 1.13805L13.0579 1.18262L7.94044 1.21975L7.79932 1.39801C7.72505 1.49456 7.6582 1.63568 7.6582 1.70995C7.6582 1.91049 7.80675 2.20758 7.94787 2.27443C8.01471 2.30414 9.79727 2.3487 11.9066 2.37098L15.754 2.40812L15.1449 2.85376C14.4096 3.40338 13.1841 4.54719 13.0356 4.82942C12.9019 5.09681 12.9613 5.37162 13.2064 5.56473C13.5481 5.83211 13.704 5.76526 14.4468 5.05224C15.286 4.25752 15.7391 3.89358 16.5858 3.32911C19.0517 1.70253 22.186 0.944941 25.0975 1.26431C30.2075 1.82136 34.5673 5.31963 36.1791 10.1474C36.7213 11.7814 36.803 12.3533 36.803 14.329C36.803 15.8664 36.7881 16.1709 36.6396 16.8542C35.622 21.5557 32.4134 25.2174 27.9645 26.7548C23.5675 28.2774 18.7249 27.3193 15.1078 24.2147C13.0133 22.4099 11.461 19.7435 10.8371 16.8542C10.6885 16.1709 10.6737 15.8664 10.6737 14.329C10.6737 12.7915 10.6885 12.487 10.8371 11.8037C11.1713 10.2885 11.7729 8.75104 12.5305 7.4884C12.8202 7.00562 12.8425 6.77538 12.6271 6.50057C12.5082 6.35202 12.4117 6.30746 12.1963 6.30746C11.8546 6.30746 11.7358 6.42629 11.2679 7.25072C10.5623 8.47623 10.0127 9.95427 9.67843 11.5066C9.49275 12.3756 9.48532 12.5538 9.48532 14.329C9.48532 16.1041 9.49275 16.2823 9.67843 17.1513C10.436 20.6719 12.3671 23.7245 15.1449 25.7893L15.7614 26.2498L11.9141 26.2869C9.79727 26.3092 8.01471 26.3538 7.94787 26.3835C7.80675 26.4503 7.6582 26.7474 7.6582 26.9628C7.6582 27.0445 7.7399 27.193 7.84389 27.2896L8.02214 27.4753H13.0133H17.997L18.7026 27.7352C24.6667 29.9709 31.3959 28.0026 35.2061 22.9149C36.4984 21.1844 37.3229 19.3572 37.7982 17.1588C37.9839 16.2823 37.9988 16.1041 37.9988 14.329C37.9988 12.5538 37.9839 12.3756 37.7982 11.4991C37.3229 9.31552 36.5133 7.50325 35.2135 5.75041C32.2352 1.73223 27.244 -0.443966 22.2232 0.0759449Z" fill="#4BB08C"/>
<path d="M22.3254 3.26985C18.3593 3.81205 14.9724 6.38932 13.4572 10.0287C12.8779 11.4176 12.6328 12.6877 12.6328 14.3291C12.6328 15.9854 12.8779 17.2703 13.4647 18.637C14.9204 22.0684 17.8542 24.46 21.5753 25.2621C22.6745 25.4998 24.8136 25.4998 25.9277 25.2547C28.2153 24.7645 29.9756 23.8064 31.617 22.1724C32.8722 20.9097 33.5927 19.803 34.1943 18.1913C34.5062 17.352 34.8108 15.9854 34.7365 15.718C34.6474 15.3392 33.9715 15.1833 33.7264 15.4803C33.6818 15.5323 33.5555 15.9631 33.4516 16.4236C33.0133 18.4067 32.0701 20.0853 30.6143 21.4742C29.1883 22.8408 27.5097 23.7172 25.5712 24.1109C24.6725 24.2891 22.7117 24.2891 21.8575 24.1035C18.842 23.4573 16.3242 21.5782 14.9427 18.9415C14.4971 18.0799 14.096 16.9138 13.9326 16.0077C13.784 15.1535 13.784 13.5047 13.9326 12.6505C14.2965 10.5932 15.3735 8.58038 16.9035 7.13948C18.2776 5.83228 19.9487 4.96328 21.8575 4.55478C22.7042 4.36909 24.6725 4.36909 25.5563 4.54735C27.48 4.93357 29.1734 5.80256 30.5549 7.1172C31.4536 7.97877 32.0849 8.84033 32.6494 9.98414C33.1842 11.0611 33.4516 11.9524 33.615 13.1927C33.7041 13.8463 33.7487 14.0172 33.8823 14.1212C34.1052 14.3068 34.5062 14.292 34.6993 14.0989C34.8479 13.9503 34.8553 13.8835 34.8108 13.2596C34.6919 11.5364 34.0309 9.67219 32.9762 8.08275C32.3375 7.12463 30.9486 5.74315 29.9756 5.09697C28.6981 4.25768 27.428 3.72292 25.9648 3.41097C25.1033 3.23272 23.1573 3.15102 22.3254 3.26985Z" fill="#4BB08C"/>
<path d="M2.47455 5.43838C2.27401 5.65377 2.26658 6.01028 2.45227 6.24053L2.59338 6.41878L5.66829 6.44106C7.35429 6.44849 8.81004 6.44106 8.9066 6.41878C9.34481 6.30737 9.50078 5.8246 9.21112 5.46066L9.06257 5.26755H5.84655H2.63052L2.47455 5.43838Z" fill="#4BB08C"/>
<path d="M23.3282 5.7877C23.202 5.91397 23.1797 6.03281 23.1797 6.64184C23.1797 7.44399 23.2837 7.64453 23.707 7.64453C24.1824 7.64453 24.3681 7.36229 24.3681 6.64184C24.3681 6.17392 24.2492 5.80999 24.071 5.71343C23.8407 5.59459 23.4842 5.63173 23.3282 5.7877Z" fill="#4BB08C"/>
<path d="M17.6331 8.12726C17.4326 8.26838 17.3509 8.62489 17.4623 8.83285C17.6034 9.09281 18.0639 9.57558 18.2867 9.69442C18.5689 9.83554 18.7472 9.82811 18.9774 9.64243C19.1334 9.52359 19.1705 9.42704 19.1705 9.18194C19.1705 8.90713 19.126 8.83285 18.7249 8.44663C18.2496 7.97871 17.9599 7.89701 17.6331 8.12726Z" fill="#4BB08C"/>
<path d="M28.7429 8.45404C28.3567 8.84769 28.3047 8.92939 28.3047 9.18935C28.3047 9.66469 28.728 9.92465 29.144 9.71669C29.3891 9.59042 29.8644 9.1225 29.9833 8.88483C30.2135 8.45404 29.9313 8.01583 29.4336 8.01583C29.2257 8.01583 29.1068 8.0901 28.7429 8.45404Z" fill="#4BB08C"/>
<path d="M5.8078 9.24878C5.61469 9.49388 5.60726 9.80583 5.79295 10.0286C5.93406 10.1995 5.96377 10.2069 7.35268 10.2292L8.7713 10.2515L8.95698 10.0658C9.20208 9.82068 9.20951 9.44189 8.97183 9.21907C8.80843 9.0631 8.73416 9.05567 7.38239 9.05567H5.95635L5.8078 9.24878Z" fill="#4BB08C"/>
<path d="M23.3282 9.20382C23.1871 9.34494 23.1797 9.44892 23.1797 11.9816V14.6183L23.3728 14.7669C23.5585 14.9154 23.6699 14.9229 24.9622 14.9229C26.2546 14.9229 26.366 14.9154 26.5517 14.7669C26.8265 14.5515 26.8265 14.1058 26.5517 13.8905C26.3734 13.7493 26.2546 13.7345 25.3633 13.7345H24.3681V11.6994C24.3681 9.6049 24.3309 9.27067 24.071 9.12955C23.8407 9.01071 23.4842 9.04785 23.3282 9.20382Z" fill="#4BB08C"/>
<path d="M0.156338 11.9524C-0.0739081 12.1827 -0.0441989 12.6432 0.20833 12.8437C0.40144 12.9923 0.453431 12.9997 3.48377 12.9774L6.55868 12.9551L6.6998 12.7769C6.89291 12.5392 6.87805 12.205 6.65523 11.9896L6.47698 11.8039H3.38722C0.40144 11.8039 0.297457 11.8113 0.156338 11.9524Z" fill="#4BB08C"/>
<path d="M15.2937 13.8385C15.0931 13.987 15.004 14.299 15.0931 14.5292C15.2194 14.856 15.368 14.9154 16.0735 14.9229C16.6677 14.9229 16.742 14.908 16.9054 14.7372C17.0242 14.6258 17.0911 14.4698 17.0911 14.3287C17.0911 14.1875 17.0242 14.0316 16.9054 13.9202C16.742 13.7493 16.6677 13.7345 16.0735 13.7345C15.6576 13.7419 15.3754 13.7716 15.2937 13.8385Z" fill="#4BB08C"/>
<path d="M30.6021 13.8756C30.4684 13.9796 30.4238 14.091 30.4238 14.3287C30.4238 14.804 30.6169 14.9229 31.4042 14.9229C32.1173 14.9229 32.2584 14.8709 32.3921 14.5515C32.4663 14.3732 32.4663 14.2841 32.3921 14.1058C32.2584 13.7865 32.1173 13.7345 31.4042 13.7345C30.8992 13.7345 30.7432 13.7642 30.6021 13.8756Z" fill="#4BB08C"/>
<path d="M0.20833 15.8142C-0.0441989 16.0147 -0.0739081 16.4752 0.156338 16.7055C0.297457 16.8466 0.40144 16.854 3.38722 16.854H6.47698L6.65523 16.6683C6.87805 16.4529 6.89291 16.1187 6.6998 15.881L6.55868 15.7028L3.48377 15.6805C0.453431 15.6582 0.40144 15.6656 0.20833 15.8142Z" fill="#4BB08C"/>
<path d="M5.97088 18.4884C5.6218 18.6296 5.54752 19.1346 5.83719 19.4169C6.01544 19.6025 6.0303 19.6025 7.41921 19.6025C8.78583 19.6025 8.82297 19.5951 8.97894 19.4317C9.20176 19.194 9.19433 18.8301 8.95666 18.5999C8.7784 18.4142 8.76355 18.4142 7.45634 18.4216C6.72847 18.4216 6.06001 18.4513 5.97088 18.4884Z" fill="#4BB08C"/>
<path d="M18.3168 18.9492C18.0865 19.0754 17.6929 19.4691 17.5295 19.729C17.2473 20.1821 17.5072 20.6426 18.042 20.6426C18.2351 20.6426 18.3688 20.5609 18.7253 20.2118C19.1264 19.8256 19.1709 19.7513 19.1709 19.4765C19.1709 18.9937 18.7253 18.7189 18.3168 18.9492Z" fill="#4BB08C"/>
<path d="M28.4978 19.016C28.3493 19.1348 28.3047 19.2314 28.3047 19.4691C28.3047 19.729 28.3567 19.8107 28.7429 20.2044C29.1068 20.5683 29.2257 20.6426 29.4336 20.6426C29.753 20.6426 29.9907 20.4792 30.0501 20.2044C30.1095 19.937 30.013 19.7364 29.649 19.3577C29.1737 18.8452 28.8395 18.7486 28.4978 19.016Z" fill="#4BB08C"/>
<path d="M23.3282 21.1622C23.202 21.2885 23.1797 21.4073 23.1797 22.0164C23.1797 22.8185 23.2837 23.019 23.707 23.019C24.1824 23.019 24.3681 22.7368 24.3681 22.0164C24.3681 21.5484 24.2492 21.1845 24.071 21.0879C23.8407 20.9691 23.4842 21.0062 23.3282 21.1622Z" fill="#4BB08C"/>
<path d="M2.62937 22.2765C2.28028 22.4176 2.19858 22.9598 2.48082 23.2272C2.65165 23.3906 2.67393 23.3906 5.85282 23.3906H9.06142L9.20996 23.1975C9.46992 22.8633 9.40307 22.4919 9.06142 22.3137C8.89059 22.2171 8.34097 22.2023 5.82311 22.2097C4.15939 22.2097 2.71849 22.2394 2.62937 22.2765Z" fill="#4BB08C"/>
</svg>
