<svg width="40" height="40" viewBox="0 0 40 40" fill="none" xmlns="http://www.w3.org/2000/svg">
<g clip-path="url(#clip0_207_10494)">
<path d="M18.5156 0.450108C17.7422 0.573872 16.9687 0.759514 16.3672 0.952892C15.4609 1.25456 14.3281 1.81923 14.2109 2.02808C14.0156 2.39936 14.3203 2.94856 14.7344 2.94856C14.8281 2.94856 15.2344 2.79386 15.6328 2.60822C17.125 1.91205 18.3828 1.62585 20 1.62585C22.75 1.62585 25.1328 2.60822 27.0703 4.53427C28.2266 5.6868 29.0156 6.93216 29.5156 8.40184C29.7812 9.2063 30 10.3588 30 11.0008V11.4495L29.7266 11.3335C29.5781 11.2793 29.25 11.2252 28.9922 11.2252C27.4844 11.2252 24.0234 10.119 21.8984 8.95877C20.1641 8.01508 20.2266 8.03829 19.8906 8.09244C19.7031 8.11564 19.3359 8.31675 18.875 8.63389C17.4531 9.60852 15.6797 10.4052 14.0469 10.7997C13.1172 11.0241 11.6797 11.2252 11.0078 11.2252C10.75 11.2252 10.4219 11.2793 10.2734 11.3335L10 11.4495V11.0008C10 9.94887 10.4375 8.27808 10.9922 7.16422C11.375 6.40617 12.0156 5.48569 12.6172 4.82047C13.0312 4.35636 13.125 4.20939 13.125 3.99281C13.125 3.62925 12.8984 3.41267 12.5156 3.41267C12.2656 3.41267 12.1641 3.46682 11.8594 3.77622C10.4297 5.25364 9.44531 7.08686 8.9375 9.21403C8.8125 9.74002 8.79687 10.4052 8.76562 16.0596C8.73437 23.029 8.72656 22.8434 9.26562 23.9572C9.5625 24.576 10.2344 25.4656 10.6641 25.7905C10.8203 25.9142 10.9297 26.0302 10.9141 26.0457C10.8906 26.0689 10.2187 26.3087 9.40625 26.5872C8.58594 26.8656 7.70312 27.2215 7.41406 27.3916C6.46875 27.9486 5.60156 28.9541 5.22656 29.9365C4.86719 30.8802 4.84375 31.2592 4.84375 35.5522C4.84375 39.5203 4.84375 39.5977 5.00781 39.7988C5.21094 40.0541 5.69531 40.085 5.9375 39.8452C6.08594 39.6983 6.09375 39.59 6.09375 35.645C6.09375 31.1432 6.11719 30.9498 6.60156 30.0371C7.10937 29.0702 7.89844 28.4359 9.09375 28.0182C9.46875 27.8867 9.78906 27.7784 9.80469 27.7784C9.8125 27.7784 9.78906 27.9254 9.75 28.1033C9.625 28.6293 9.65625 30.1453 9.79687 30.7487C9.86719 31.0426 9.91406 31.2824 9.90625 31.2901C9.125 31.5841 8.55469 32.0946 8.21094 32.8062C8.01562 33.2162 8.00781 33.2858 7.98437 34.8715C7.95312 36.4572 7.96094 36.5268 8.13281 36.8208C8.36719 37.2385 8.67187 37.37 9.39844 37.37C10.0703 37.37 10.2812 37.2539 10.3594 36.8517C10.3984 36.6429 10.3672 36.5655 10.1719 36.3644C9.97656 36.171 9.86719 36.1323 9.57031 36.1323H9.21094L9.23437 34.8406C9.25781 33.34 9.34375 33.0924 9.91406 32.6902C10.2031 32.4891 10.3125 32.4582 10.7734 32.4582C11.4687 32.4582 11.875 32.7057 12.1562 33.2935C12.3281 33.6648 12.3437 33.7886 12.3437 34.9102V36.1323H12.0312C11.6328 36.1323 11.3672 36.2561 11.2578 36.4959C11.125 36.7821 11.1562 36.9755 11.375 37.1843C11.5625 37.3777 11.6094 37.3854 12.2656 37.3545C12.875 37.3313 12.9844 37.3081 13.1641 37.1379C13.5469 36.7898 13.5937 36.5655 13.5937 35.0649C13.5937 33.4792 13.5 32.9919 13.0859 32.3653C12.7578 31.8703 12.4141 31.6073 11.7422 31.3443C11.2812 31.1586 11.2109 31.1045 11.1172 30.8415C10.8359 30.0293 10.8516 28.5828 11.1562 27.6778L11.2891 27.2756L13.2578 26.6181L15.2266 25.9606L17.4453 28.1419L19.6562 30.331H20.0703H20.4922L21.2812 29.5652C21.9844 28.8768 22.0625 28.7685 22.0625 28.521C22.0625 28.1497 21.8203 27.9022 21.4453 27.9022C21.2109 27.9022 21.0937 27.9795 20.625 28.4359L20.0781 28.9773L18.2656 27.1828L16.4609 25.3882L16.6719 25.1175C16.9141 24.8004 17.0625 24.4136 17.1406 23.8876C17.1953 23.5473 17.2109 23.5241 17.3672 23.5705C18.8516 24.0423 20.6953 24.081 22.2422 23.6865L22.7969 23.5395L22.8516 23.9418C22.9219 24.4523 23.0703 24.8004 23.375 25.1716L23.6094 25.4733L23.2109 25.8755C22.6875 26.4015 22.625 26.68 22.9609 27.0126C23.3281 27.3762 23.5703 27.2911 24.2969 26.5794L24.8906 25.9993L26.6562 26.5872L28.4219 27.175L28.5781 27.7629C28.6641 28.0955 28.7578 28.5519 28.7812 28.7917C28.8359 29.3022 28.7187 30.3 28.5469 30.8106C28.4297 31.1586 28.4062 31.1819 27.9844 31.2979C27.125 31.5454 26.3984 32.1487 26.0391 32.9223C25.2969 34.5312 25.9531 36.3335 27.5625 37.1147C27.9687 37.3158 28.0859 37.3313 28.8672 37.3313C29.6797 37.3313 29.7578 37.3158 30.2422 37.0838C31.7891 36.3257 32.4453 34.4693 31.7109 32.9145C31.4453 32.3653 30.8437 31.762 30.2656 31.4835C29.9922 31.3443 29.7656 31.2128 29.7656 31.1896C29.7656 31.1664 29.8047 31.0194 29.8437 30.8724C30.0078 30.3078 30.0781 29.1707 29.9922 28.4591C29.9453 28.0801 29.9219 27.7474 29.9453 27.732C30.0156 27.6624 31.6094 28.2657 31.9844 28.5055C32.7734 29.016 33.3594 29.7509 33.6875 30.6481C33.8672 31.1354 33.8672 31.1973 33.9062 35.4594C33.9453 39.6209 33.9531 39.7833 34.0937 39.8916C34.1797 39.9535 34.3828 39.9999 34.5391 39.9999C34.7656 39.9999 34.8672 39.9535 35 39.7911C35.1641 39.5822 35.1641 39.5668 35.1406 35.2815C35.1094 30.5166 35.1172 30.6017 34.5703 29.5111C34.0547 28.4978 33.2187 27.6778 32.2266 27.206C31.9297 27.059 31.0937 26.7419 30.3672 26.5021L29.0625 26.0612L29.5469 25.5816C30.3516 24.8004 30.8359 23.9727 31.1328 22.8666C31.3047 22.2013 31.3125 10.7765 31.1328 9.71681C30.8984 8.29355 30.2812 6.68464 29.5078 5.49342C28.3984 3.78396 26.8437 2.42257 24.9609 1.50982C23.25 0.682163 21.9141 0.388226 19.9219 0.403698C19.2578 0.41143 18.625 0.434639 18.5156 0.450108ZM22.1484 10.4903C23.7891 11.2793 25.5391 11.8827 27.2109 12.2385L27.6719 12.339L27.6406 14.3888C27.6016 16.7713 27.5312 17.1348 26.875 18.4653C24.5156 23.1992 18.1875 24.1815 14.5234 20.3758C13.5781 19.3935 12.9375 18.2796 12.5703 16.9879C12.4141 16.4387 12.3906 16.1447 12.3594 14.3811L12.3281 12.3932L12.6328 12.3468C15.3828 11.8981 17.3906 11.1401 19.4141 9.79417L20.0312 9.37647L20.5078 9.6472C20.7656 9.8019 21.5078 10.1809 22.1484 10.4903ZM11.0937 13.5457C11.0937 14.4739 11.0781 14.6286 10.9766 14.6286C10.7734 14.6286 10.4219 14.4121 10.2031 14.1645C9.96875 13.8783 9.92969 13.3678 10.1172 13.012C10.25 12.749 10.6719 12.4628 10.9219 12.4628C11.0937 12.4628 11.0937 12.4705 11.0937 13.5457ZM29.4609 12.5788C30.0078 12.865 30.1875 13.7004 29.7969 14.1645C29.5781 14.4121 29.2266 14.6286 29.0234 14.6286C28.9219 14.6286 28.9062 14.4739 28.9062 13.5457C28.9062 12.5092 28.9141 12.4628 29.0625 12.4628C29.1562 12.4628 29.3281 12.5169 29.4609 12.5788ZM10.9062 15.8663C11.0547 15.8663 11.0937 15.9204 11.1328 16.1525C11.4141 17.8929 11.9609 19.2233 12.9219 20.4764C13.5781 21.3427 14.8359 22.4257 15.6875 22.8588C15.9062 22.9749 15.9375 23.0213 15.9375 23.3152C15.9375 23.7716 15.7969 24.2125 15.5937 24.4136C15.4844 24.5219 14.8828 24.7617 13.9844 25.0556L12.5469 25.5352L12.125 25.2799C11.2109 24.7385 10.5469 23.9031 10.1953 22.882L10 22.2942V18.9758V15.6497L10.3672 15.758C10.5625 15.8198 10.8125 15.8663 10.9062 15.8663ZM29.875 22.6732C29.5703 23.7329 28.7969 24.7385 27.875 25.2799L27.4531 25.5352L26.0156 25.0556C25.1172 24.7617 24.5156 24.5219 24.4062 24.4136C24.2031 24.2125 24.0625 23.7638 24.0625 23.3307C24.0703 23.029 24.0781 23.0135 24.6719 22.6577C26.9219 21.3118 28.5078 18.883 28.8672 16.2298C28.9141 15.8972 28.9375 15.8663 29.125 15.8585C29.2422 15.8585 29.4766 15.8121 29.6484 15.758L29.9609 15.6651L29.9844 18.9526C30 21.7759 29.9844 22.3019 29.875 22.6732ZM29.4609 32.5123C29.8594 32.6283 30.3516 33.046 30.5625 33.456C30.8047 33.8969 30.8047 34.6549 30.5625 35.0958C29.7578 36.6197 27.5469 36.3953 27.0547 34.7478C26.6484 33.3709 28.0312 32.0869 29.4609 32.5123Z" fill="#4BB08C"/>
<path d="M15.7813 13.0043C15.6406 13.1436 15.625 13.2596 15.625 14.1182C15.625 15.0696 15.625 15.0851 15.8281 15.2398C16.1016 15.4486 16.3438 15.4486 16.6094 15.2243C16.7969 15.0619 16.8203 14.9768 16.8594 14.4585C16.9063 13.7082 16.8281 13.19 16.6328 12.9966C16.4297 12.7955 15.9844 12.8032 15.7813 13.0043Z" fill="#4BB08C"/>
<path d="M23.3668 12.9966C23.1714 13.19 23.0933 13.7082 23.1402 14.4585C23.1793 14.9768 23.2027 15.0619 23.3902 15.2243C23.6558 15.4486 23.898 15.4486 24.1714 15.2398C24.3746 15.0851 24.3746 15.0696 24.3746 14.1182C24.3746 13.2596 24.3589 13.1436 24.2183 13.0043C24.0152 12.8032 23.5699 12.7955 23.3668 12.9966Z" fill="#4BB08C"/>
<path d="M18.3681 18.4653C18.0087 18.9217 18.2666 19.3704 19.0556 19.6643C19.4072 19.7958 19.6181 19.819 20.1181 19.7958C21.4072 19.7262 22.1337 19.0919 21.6337 18.4653C21.4384 18.2178 21.0634 18.1946 20.6494 18.4189C20.4775 18.5118 20.2041 18.5736 20.0009 18.5736C19.7978 18.5736 19.5244 18.5118 19.3525 18.4189C18.9384 18.1946 18.5634 18.2178 18.3681 18.4653Z" fill="#4BB08C"/>
<path d="M19.5313 32.048C19.1641 32.4347 19.461 33.0381 20.0157 33.0381C20.5469 33.0381 20.8204 32.3961 20.4454 32.048C20.2032 31.8159 19.7501 31.8159 19.5313 32.048Z" fill="#4BB08C"/>
<path d="M19.5313 35.5289C19.1641 35.9157 19.461 36.519 20.0157 36.519C20.5469 36.519 20.8204 35.877 20.4454 35.5289C20.2032 35.2969 19.7501 35.2969 19.5313 35.5289Z" fill="#4BB08C"/>
<path d="M19.5313 39.0099C19.1641 39.3967 19.461 40 20.0157 40C20.5469 40 20.8204 39.358 20.4454 39.0099C20.2032 38.7778 19.7501 38.7778 19.5313 39.0099Z" fill="#4BB08C"/>
</g>
<defs>
<clipPath id="clip0_207_10494">
<rect width="40" height="39.604" fill="white" transform="translate(0 0.395996)"/>
</clipPath>
</defs>
</svg>
