<svg width="40" height="40" viewBox="0 0 40 40" fill="none" xmlns="http://www.w3.org/2000/svg">
<g clip-path="url(#clip0_207_10507)">
<path d="M16.2109 0.093586C15.6641 0.296711 15.2109 0.663898 14.6094 1.40609C13.6562 2.57796 13.6484 2.58577 12.0703 2.71077C11.0312 2.79671 10.5859 2.94515 10.0391 3.39046C9.54688 3.79671 9.26562 4.40609 9.03125 5.57015C8.77344 6.86702 8.67969 6.99984 7.53906 7.69515C6.41406 8.38265 5.96094 8.95296 5.78906 9.85921C5.69531 10.3983 5.75781 10.8358 6.09375 11.953C6.40625 12.992 6.38281 13.1639 5.76562 14.203C5.03125 15.453 4.875 16.0936 5.11719 16.9217C5.29688 17.5545 5.46875 17.8123 6.29688 18.6717C6.71875 19.117 7.04688 19.5311 7.10156 19.6951C7.15625 19.867 7.17969 20.4295 7.17188 21.2108C7.15625 22.367 7.16406 22.492 7.32812 22.8436C7.72656 23.703 8.25781 24.1483 9.3125 24.4998C9.90625 24.6951 9.92969 24.7108 9.82031 24.867C9.76562 24.9608 8.51562 27.1483 7.04688 29.7264C4.58594 34.0545 4.375 34.453 4.375 34.7889C4.375 35.2967 4.66406 35.6248 5.15625 35.6795C5.35156 35.6951 6.49219 35.6639 7.6875 35.5936C8.89062 35.5233 9.88281 35.4842 9.89844 35.492C9.90625 35.5076 10.3984 36.4295 10.9766 37.5467C11.5859 38.6952 12.1406 39.6639 12.2734 39.7811C12.5781 40.0702 13.1719 40.0936 13.4766 39.8202C13.5859 39.7264 14.9375 37.4373 16.4688 34.7342L19.2656 29.828L20.0625 29.8123L20.8516 29.8045L23.6094 34.6483C25.125 37.3123 26.4766 39.6092 26.6094 39.742C26.8281 39.9686 26.9141 39.9998 27.2656 39.9998C27.6016 39.9998 27.7031 39.9608 27.8828 39.7811C28 39.6639 28.5625 38.6717 29.1328 37.578C29.7031 36.4842 30.1953 35.5623 30.2188 35.5311C30.25 35.4998 31.3359 35.5311 32.6406 35.6014C35.3047 35.742 35.4062 35.7264 35.6719 35.2264C35.9297 34.7186 35.8828 34.6248 32.9766 29.5311C31.4688 26.8905 30.2656 24.7108 30.2969 24.6795C30.3281 24.6483 30.6016 24.5467 30.8984 24.453C31.7891 24.1717 32.3359 23.7342 32.7188 23.0076C32.9141 22.6405 32.9297 22.5389 32.9766 21.0936C33 20.2576 33.0312 19.5623 33.0391 19.5467C33.0391 19.5389 33.4062 19.1561 33.8359 18.6873C34.8828 17.578 35.0391 17.2576 35.0391 16.2108C35.0391 15.4295 35.0391 15.4295 34.6953 14.8045C34.0156 13.5858 33.8281 13.1795 33.8281 12.9295C33.8281 12.7889 33.9375 12.3123 34.0781 11.867C34.3984 10.8201 34.4297 9.79671 34.1562 9.19515C33.9219 8.67171 33.375 8.1639 32.4453 7.59359C31.4531 6.98421 31.3281 6.80452 31.0938 5.54671C30.8906 4.44515 30.7422 4.1014 30.2656 3.59359C29.6875 2.9764 29.2734 2.81234 27.9375 2.69515C27.2266 2.63265 26.7109 2.54671 26.5312 2.46077C26.3594 2.37484 26.0391 2.06234 25.7031 1.64827C24.6172 0.281086 24.0703 -0.0392265 22.8906 0.015461C22.2891 0.0388985 22.1406 0.0857735 21.3203 0.452961C20.1719 0.968586 20.0078 0.968586 18.9531 0.515461C18.5234 0.327961 18.0469 0.140461 17.8984 0.0857735C17.5703 -0.0236015 16.5234 -0.015789 16.2109 0.093586ZM18.3828 1.65609C19.8516 2.28109 20.3438 2.27327 21.8984 1.58577C22.9453 1.12484 23.4922 1.13265 24.0078 1.62484C24.1328 1.74202 24.4766 2.14046 24.7734 2.51546C25.6328 3.58577 26.1797 3.84359 27.8047 3.94515C28.7344 3.99984 29 4.09359 29.3438 4.46077C29.6328 4.76546 29.7031 4.9764 29.9219 6.08577C30.1953 7.42952 30.5469 7.93733 31.6875 8.62483C32.5703 9.1639 32.7969 9.34358 32.9688 9.68733C33.1875 10.117 33.1641 10.5233 32.875 11.4373C32.6719 12.0623 32.625 12.3592 32.6172 12.8905C32.6172 13.6561 32.6719 13.8123 33.375 15.0389C33.7578 15.6873 33.8281 15.8748 33.8281 16.1951C33.8281 16.7498 33.6875 16.992 32.8281 17.9061C31.7734 19.0389 31.7188 19.1795 31.7188 20.9139C31.7188 22.7655 31.6484 22.8748 29.9609 23.4373C28.9453 23.7811 28.6797 23.9217 28.2656 24.3514C28.0156 24.6092 27.2656 25.9686 27.2656 26.1639C27.2656 26.328 26.7656 26.8905 26.4922 27.0311C26.1172 27.2186 25.8047 27.2264 24.9219 27.0701C24.0312 26.9061 23.3047 26.9061 22.8359 27.0623C22.625 27.1326 22.125 27.4373 21.7188 27.7498C20.7656 28.4686 20.5234 28.5936 20.0547 28.5936C19.6016 28.5936 19.3984 28.492 18.5703 27.8592C17.3359 26.9061 16.7734 26.7733 15.2344 27.0623C14.3906 27.2264 14.0391 27.2186 13.6875 27.0389C13.25 26.8123 13.0938 26.6014 12.6562 25.6639C11.9766 24.2264 11.6484 23.9295 10.1406 23.4295C8.49219 22.8826 8.39844 22.7498 8.39844 20.8201C8.39844 19.5467 8.39062 19.4764 8.19531 19.0545C8.05469 18.7655 7.71875 18.3358 7.21094 17.7967C6.04688 16.5701 6.00781 16.3045 6.8125 14.9373C7.42969 13.8826 7.53125 13.6014 7.53125 12.8905C7.53125 12.4451 7.46094 12.1092 7.26562 11.4842C6.77344 9.92171 6.91406 9.56233 8.39844 8.64827C9.6875 7.85139 9.96875 7.42952 10.2734 5.74202C10.4375 4.88265 10.6172 4.51546 11 4.26546C11.3594 4.02327 11.4531 4.00765 12.6484 3.90609C14.1172 3.78109 14.5938 3.51546 15.5938 2.21859C16.4688 1.1014 16.8906 1.01546 18.3828 1.65609ZM11.5234 26.2498C11.6875 26.617 11.8984 27.0389 11.9922 27.1873C12.2031 27.5155 12.7109 27.992 13.0469 28.1639L13.2891 28.2889L13.1406 28.5389C12.2656 29.9998 12.1953 30.242 12.5391 30.5858C12.75 30.8045 12.8359 30.8201 13.1797 30.703C13.3672 30.6326 13.5234 30.4139 14.0312 29.5311L14.6484 28.4451L15.3516 28.3201C16.1875 28.1639 16.7031 28.1483 16.9609 28.2811C17.0625 28.3358 17.3828 28.5545 17.6641 28.7655L18.1797 29.1561L17.1562 30.9608C16.5859 31.9608 15.4141 34.0311 14.5391 35.5623C13.6641 37.1014 12.9219 38.3592 12.8984 38.3592C12.8672 38.3592 12.4297 37.5702 11.9219 36.6014L11 34.8436L11.5938 33.7967C11.9766 33.117 12.1875 32.6639 12.1875 32.5076C12.1875 32.1639 11.9453 31.953 11.5703 31.953C11.1953 31.953 11.1016 32.0623 10.3906 33.3358C10.125 33.8201 9.88281 34.2186 9.85938 34.2186C9.82812 34.2186 8.92969 34.2733 7.85156 34.328C6.78125 34.3905 5.89062 34.4295 5.875 34.4139C5.85938 34.4061 7.01562 32.3436 8.4375 29.8436C10.7188 25.8436 11.0391 25.3201 11.1328 25.4451C11.1797 25.5233 11.3594 25.8826 11.5234 26.2498ZM31.7109 29.8826C33.1328 32.3748 34.2812 34.4139 34.2734 34.4217C34.2266 34.4686 30.2734 34.2108 30.2266 34.1639C30.1953 34.1248 29.9141 33.6639 29.6094 33.1248C28.9688 31.9998 28.9453 31.9686 28.625 31.9061C28.4375 31.8748 28.3359 31.9061 28.1641 32.0545C27.7969 32.367 27.8516 32.6248 28.5391 33.8045L29.1328 34.8436L28.1875 36.6405C27.6719 37.6327 27.2344 38.4373 27.2266 38.4217C27.2031 38.3905 22.1719 29.5623 22.0469 29.328C21.9688 29.1795 22 29.1248 22.4062 28.8123C23.0234 28.328 23.3203 28.1873 23.7422 28.1951C24.1094 28.1951 25.3438 28.3983 25.4609 28.4686C25.5 28.492 25.7969 28.9842 26.125 29.5701C26.4609 30.1483 26.7969 30.6561 26.875 30.703C27.2734 30.9139 27.8125 30.617 27.8125 30.1873C27.8125 30.0701 27.5938 29.5936 27.3359 29.1248C27.0703 28.6561 26.8672 28.2655 26.8828 28.2498C26.8984 28.242 27.0781 28.1405 27.2734 28.0233C27.8047 27.7186 28.0625 27.3826 28.5938 26.2811C28.8516 25.7342 29.0781 25.3045 29.1016 25.3201C29.1172 25.3436 30.2969 27.3905 31.7109 29.8826Z" fill="#4BB08C"/>
<path d="M18.75 4.50781C18.0703 4.60938 17.25 4.79688 16.8359 4.9375C13.2969 6.13281 10.7891 8.85156 9.85938 12.5C9.66406 13.2578 9.64844 13.4453 9.64844 14.9219C9.64844 16.3984 9.66406 16.5859 9.85938 17.3438C11.0859 22.1797 15.1719 25.3906 20.0938 25.3906C22.8359 25.3906 25.375 24.3594 27.3516 22.4453C32.625 17.3438 31.1641 8.57812 24.5234 5.4375C23.6797 5.03906 22.6797 4.72656 21.7188 4.57031C21.1172 4.46875 19.2422 4.42969 18.75 4.50781ZM21.6094 5.82031C23.5391 6.15625 25.1172 6.98438 26.5312 8.39062C28.3438 10.2031 29.2969 12.4531 29.2969 14.9219C29.2969 17.3906 28.3438 19.6406 26.5312 21.4531C25.4453 22.5312 24.3672 23.2109 23.0078 23.6641C18.6562 25.1172 13.8984 23.1562 11.8359 19.0625C10.9453 17.2891 10.6406 15.25 10.9766 13.3125C11.6406 9.53906 14.6719 6.51562 18.5078 5.82812C19.3203 5.67969 20.7734 5.67969 21.6094 5.82031Z" fill="#4BB08C"/>
<path d="M19.7893 7.35118C19.6487 7.39024 19.469 7.52305 19.3987 7.63243C19.3206 7.74962 18.9534 8.77305 18.5862 9.91368L17.9065 11.9918L15.5784 12.0309C14.2893 12.0543 13.18 12.1012 13.1018 12.1402C12.7425 12.3121 12.6253 13.0387 12.8987 13.3902C12.9846 13.4996 13.8206 14.1481 14.7503 14.8199C15.68 15.4918 16.469 16.0621 16.5003 16.0856C16.5315 16.1168 16.2581 17.0699 15.8909 18.2027C15.5159 19.3434 15.2112 20.4059 15.2112 20.5699C15.2112 21.1402 15.8206 21.5231 16.3596 21.2965C16.5003 21.2418 17.3831 20.6324 18.3206 19.9527C19.2581 19.2652 20.0628 18.7184 20.094 18.734C20.1331 18.7418 20.9378 19.3199 21.8831 20.0074C22.8362 20.6949 23.7112 21.2965 23.8362 21.3434C24.3284 21.5152 24.9221 21.0934 24.9221 20.5699C24.9221 20.4215 24.6174 19.3668 24.2503 18.2262C23.8831 17.0856 23.6096 16.1246 23.6487 16.0934C23.6799 16.0621 24.4924 15.4684 25.4456 14.7731C26.4065 14.0777 27.2346 13.4293 27.3049 13.3356C27.3674 13.2418 27.4221 13.0309 27.4221 12.8668C27.4221 12.6246 27.3674 12.5074 27.1565 12.2965L26.8909 12.0309H24.5549H22.2268L21.5706 9.97618C21.2112 8.85118 20.8674 7.83555 20.8049 7.71837C20.6409 7.37462 20.2268 7.23399 19.7893 7.35118ZM20.6643 11.2652C21.1253 12.6637 21.2424 12.9449 21.4299 13.0777C21.6331 13.2262 21.7893 13.2418 23.4768 13.2809L25.2971 13.3199L23.8909 14.3356C23.1174 14.8902 22.4378 15.4215 22.3753 15.5074C22.1878 15.7731 22.2503 16.1481 22.7815 17.7887C23.0628 18.6715 23.2815 19.3981 23.2659 19.4059C23.2503 19.4215 22.594 18.9606 21.8049 18.3902C20.6253 17.5231 20.3284 17.3434 20.1018 17.3434C19.7503 17.3434 19.7112 17.3668 18.2425 18.4371C17.555 18.9371 16.9534 19.3668 16.9065 19.3981C16.8518 19.4293 17.055 18.7027 17.3518 17.7887C17.6487 16.8824 17.8909 16.0387 17.8909 15.9215C17.8909 15.6012 17.5862 15.3121 16.1643 14.2809L14.844 13.3199L16.6565 13.2809C18.6096 13.2418 18.7425 13.2106 18.9378 12.8277C18.9925 12.7106 19.2659 11.9215 19.5315 11.0777C19.805 10.2262 20.0471 9.5543 20.0706 9.57774C20.094 9.60118 20.3675 10.359 20.6643 11.2652Z" fill="#4BB08C"/>
</g>
<defs>
<clipPath id="clip0_207_10507">
<rect width="40" height="40" fill="white"/>
</clipPath>
</defs>
</svg>
