<svg width="40" height="40" viewBox="0 0 40 40" fill="none" xmlns="http://www.w3.org/2000/svg">
<path d="M18.041 0.130859C17.666 0.216797 17.1738 0.341797 16.9473 0.419922C14.3691 1.27148 12.2363 3.32617 11.2754 5.87305C10.7676 7.22461 10.6973 7.70898 10.6582 10.4902C10.6191 12.7871 10.6035 13.0059 10.4707 13.2012C10.0566 13.7793 9.92383 14.9746 10.1895 15.7324C10.5801 16.8652 11.541 17.5996 12.8457 17.7559C13.1738 17.8027 13.2129 17.8262 13.2129 17.998C13.2129 18.3809 13.4629 19.4121 13.6973 19.9746C14.1504 21.0684 15.1191 22.2637 16.0801 22.9277L16.4941 23.209V23.9746V24.7402L16.166 24.8262C13.9551 25.4121 11.9863 26.4824 10.4551 27.9512C9.72852 28.6465 9.66602 28.7246 9.66602 29.0059C9.66602 29.3652 9.9082 29.5918 10.2988 29.5918C10.5254 29.5918 10.666 29.498 11.252 28.9434C11.9551 28.2793 12.6191 27.7637 13.3457 27.3418L13.7441 27.1074L13.3535 27.7793C12.6895 28.9277 12.5879 29.1777 12.5879 29.7715C12.5879 30.2949 12.6035 30.334 13.3457 31.7637L14.0957 33.2246L13.8066 35.4512C13.6426 36.6777 13.4785 37.9355 13.4316 38.2402L13.3535 38.8105H12.7754H12.1973V37.0605V35.3027L11.9941 35.1465C11.7363 34.9434 11.4082 34.9355 11.1738 35.1309C10.9863 35.2793 10.9863 35.2949 10.9629 37.0449L10.9395 38.8105H9.62695C8.26758 38.8105 7.87695 38.748 7.74414 38.498C7.69727 38.4199 7.66602 37.8809 7.66602 37.3027C7.66602 35.4355 8.0332 33.8652 8.88477 32.1074C9.33008 31.2012 9.35352 31.0449 9.08789 30.7402C8.92383 30.5605 8.36133 30.5605 8.18945 30.748C7.98633 30.9668 7.30664 32.4512 7.04883 33.2246C6.61133 34.5371 6.48633 35.3496 6.43945 37.0527L6.40039 38.6152L6.62695 39.0449C6.79883 39.3809 6.94727 39.5293 7.27539 39.7324L7.69727 39.9824L19.9785 39.9668L32.2598 39.9434L32.6035 39.7012C32.8066 39.5527 33.0254 39.2871 33.1582 39.0371L33.3848 38.6152L33.3457 37.0527C33.2988 35.2949 33.1738 34.5293 32.7051 33.1387C31.6582 30.0059 29.1738 27.1934 26.1816 25.7715C25.416 25.4043 24.4004 25.0371 23.627 24.8262L23.291 24.7402V23.9746V23.209L23.7051 22.9199C24.6816 22.248 25.627 21.084 26.0879 19.959C26.3223 19.4043 26.5723 18.3809 26.5723 17.998C26.5723 17.8262 26.6113 17.8027 26.9473 17.7559C28.2598 17.5918 29.1582 16.9121 29.5879 15.7637C29.8613 15.0371 29.7285 13.7793 29.3145 13.2012C29.1816 13.0059 29.166 12.7871 29.127 10.4902C29.0801 7.82617 29.0332 7.41211 28.6348 6.2168C28.3691 5.41211 28.2129 5.2168 27.8223 5.2168C27.5879 5.2168 27.4863 5.26367 27.3613 5.41992C27.1582 5.67773 27.1582 5.84961 27.3535 6.38086C27.7598 7.43555 27.8379 7.9668 27.877 10.0371L27.9238 12.0059L27.5488 11.8887C27.3379 11.8262 26.8613 11.7793 26.4785 11.7793C25.3066 11.7793 25.1895 11.6621 24.6973 9.94336C24.4941 9.23242 24.2598 8.57617 24.1895 8.49023C24.0957 8.39648 23.9473 8.3418 23.7754 8.3418C23.5254 8.3418 23.3926 8.44336 22.5176 9.30273C21.416 10.3809 21.0801 10.6309 20.1504 11.0762C18.8691 11.6855 18.627 11.7246 15.2832 11.7793C13.1816 11.8105 12.252 11.8496 12.0879 11.9199L11.8613 12.0137L11.9082 10.0449C11.9395 8.26367 11.9629 7.99805 12.1426 7.31836C12.5332 5.82617 13.2051 4.61523 14.2207 3.5918C15.5645 2.23242 17.3926 1.37305 19.1816 1.24023C21.6191 1.06836 23.791 1.85742 25.5098 3.53711C26.0254 4.03711 26.1504 4.12305 26.377 4.12305C26.6738 4.12305 26.9551 3.9043 26.9707 3.66992C27.002 3.20117 26.7207 2.81055 25.7676 2.05273C24.627 1.13867 23.4785 0.560547 22.1113 0.208984C21.1504 -0.0332031 18.9941 -0.0722656 18.041 0.130859ZM23.6348 10.8418C23.9238 11.8965 24.2832 12.4277 24.9473 12.7637L25.3223 12.9512V15.5449C25.3223 18.4824 25.291 18.7168 24.752 19.8262C24.4863 20.3652 24.2988 20.623 23.7207 21.2012C22.5801 22.3418 21.4395 22.8262 19.8926 22.8262C18.3691 22.8262 17.2051 22.3418 16.0957 21.2324C15.377 20.5137 15.0488 20.0059 14.7207 19.1074L14.5098 18.5371L14.4785 15.7949L14.4551 13.0449L16.4316 13.0059C18.5566 12.959 18.9316 12.9121 20.0879 12.4902C21.1738 12.0918 22.2285 11.4199 23.0176 10.6152C23.2285 10.3965 23.4238 10.2402 23.4551 10.2793C23.4785 10.3105 23.5645 10.5605 23.6348 10.8418ZM13.2129 14.7949V16.5605L12.8848 16.5059C11.3223 16.2402 10.7363 14.3887 11.9238 13.4434C12.2441 13.1855 12.6113 13.0449 12.9629 13.0371L13.2129 13.0293V14.7949ZM27.2832 13.1152C27.666 13.2324 28.1035 13.5996 28.2832 13.959C28.6738 14.709 28.5332 15.459 27.9004 16.0215C27.5488 16.3418 27.0566 16.5449 26.6504 16.5449C26.6035 16.5449 26.5723 15.8496 26.5723 14.7871V13.0293H26.7754C26.8926 13.0293 27.1191 13.0684 27.2832 13.1152ZM19.8535 24.0684C20.6191 24.0762 21.041 24.0371 21.3848 23.9434C21.6504 23.873 21.9082 23.8105 21.9629 23.8105C22.041 23.8105 22.0566 24.0293 22.0254 24.7402C21.9941 25.5527 21.9551 25.7324 21.7754 26.1074C21.4004 26.873 20.752 27.2793 19.8926 27.2793C19.041 27.2793 18.3848 26.873 18.0098 26.1152C17.8301 25.748 17.7988 25.5605 17.7676 24.7168L17.7207 23.748L18.2598 23.9043C18.6816 24.0293 19.0332 24.0684 19.8535 24.0684ZM16.4941 32.4434V38.8105H15.5566H14.6113L14.6582 38.5527C14.8613 37.3262 15.3926 33.0137 15.3457 32.8965C15.3145 32.8184 14.9629 32.1387 14.5645 31.3809C14.0488 30.4043 13.8379 29.9199 13.8457 29.7402C13.8457 29.5527 14.1113 29.0137 14.7598 27.8809C15.6426 26.3418 15.6816 26.2793 15.9863 26.1855C16.1582 26.1387 16.3457 26.0918 16.4004 26.084C16.4707 26.0762 16.4941 27.3965 16.4941 32.4434ZM23.7598 26.1855L24.1113 26.2871L25.0254 27.8809C25.6895 29.0371 25.9395 29.5449 25.9473 29.7402C25.9473 29.9277 25.7363 30.4043 25.2207 31.3809C24.8223 32.1387 24.4707 32.8184 24.4395 32.8965C24.4004 33.0059 24.9629 37.5918 25.1348 38.5527L25.1816 38.8105H24.2363H23.291V32.4434C23.291 28.9434 23.3145 26.0762 23.3535 26.0762C23.3848 26.0762 23.5645 26.123 23.7598 26.1855ZM27.3535 27.9355C28.5801 28.8105 29.9316 30.3418 30.7051 31.7324C31.6191 33.3887 32.0332 34.9043 32.0957 36.8652C32.1191 37.584 32.1191 38.2637 32.0879 38.3809C31.9941 38.7324 31.666 38.8105 30.1738 38.8105H28.8457L28.8223 37.0449C28.7988 35.2949 28.7988 35.2793 28.6113 35.1309C28.377 34.9355 28.0488 34.9434 27.791 35.1465L27.5879 35.3027V37.0605V38.8105H27.0098H26.4395L26.3926 38.5137C26.3691 38.3574 26.1973 37.0996 26.0176 35.7246L25.6816 33.2246L26.3457 31.9746C27.166 30.4199 27.1816 30.3652 27.1895 29.748C27.1973 29.1777 27.0957 28.9277 26.4316 27.7793L26.041 27.1074L26.4395 27.3418C26.666 27.4746 27.0723 27.7402 27.3535 27.9355ZM18.7988 28.3887C19.6816 28.7012 21.0879 28.5137 21.7754 27.9902L22.041 27.7871V33.2949V38.8105H19.8926H17.7441V33.3027V27.8027L18.0801 28.0215C18.2598 28.1465 18.5879 28.3105 18.7988 28.3887Z" fill="#4BB08C"/>
</svg>
