<svg width="40" height="40" viewBox="0 0 40 40" fill="none" xmlns="http://www.w3.org/2000/svg">
<g clip-path="url(#clip0_207_10523)">
<path d="M8.1015 0.15625C7.89056 0.234375 7.539 0.445312 7.32025 0.617188C7.09368 0.789062 5.51556 2.32812 3.81243 4.03906C0.507745 7.35156 0.429621 7.45312 0.234308 8.39844C0.179621 8.66406 0.163996 13.5 0.171808 23.2891L0.195246 37.7891L0.507746 38.4062C0.874933 39.1172 1.36712 39.5781 2.07025 39.8359L2.50775 40L16.1952 39.9844L29.8827 39.9609L30.2499 39.7891C30.7734 39.5469 31.3827 38.9531 31.664 38.3984C31.8906 37.9688 31.9062 37.8516 31.9374 37.0078C31.9687 36.1328 31.9609 36.0703 31.789 35.8906C31.5702 35.6641 31.1874 35.6406 30.9296 35.8516C30.7656 35.9766 30.7421 36.0859 30.7031 36.8047C30.6406 37.8672 30.4296 38.25 29.6874 38.6406C29.4218 38.7812 28.9374 38.7891 16.0937 38.7891H2.76556L2.38275 38.5859C1.94525 38.3672 1.58587 37.9141 1.48431 37.4531C1.40618 37.1172 1.37493 8.92188 1.45306 8.71875C1.49212 8.60938 1.82806 8.59375 4.36712 8.59375C7.07025 8.59375 7.24212 8.57812 7.57806 8.42969C8.00775 8.23438 8.39837 7.875 8.61712 7.46094C8.78118 7.15625 8.78899 7.05469 8.81243 4.20312L8.83587 1.25781L9.16399 1.21094C9.34368 1.1875 13.9765 1.17188 19.4531 1.1875L29.414 1.21094L29.7265 1.38281C29.8984 1.46875 30.1327 1.64844 30.2499 1.77344C30.7109 2.25 30.7031 2.20312 30.7031 6.67969C30.7031 10.1328 30.7187 10.8281 30.8202 11.0078C31.0077 11.375 31.3984 11.4375 31.7499 11.1641L31.9609 11L31.9374 6.53906L31.914 2.07031L31.6718 1.60156C31.3827 1.04688 30.7656 0.445312 30.2499 0.210938L29.8827 0.0390625L19.1796 0.0234375C8.85149 0.0078125 8.46087 0.0078125 8.1015 0.15625ZM7.539 6.69531C7.51556 6.83594 7.39056 7.03125 7.25775 7.14062L7.01556 7.34375H4.664H2.31243L4.92962 4.76562L7.539 2.19531L7.56243 4.32031C7.57025 5.49219 7.56243 6.55469 7.539 6.69531Z" fill="#4BB08C"/>
<path d="M13.0859 4.1328C12.6953 4.31249 12.4375 4.58593 12.3438 4.92968C12.2969 5.07812 12.2656 5.71874 12.2656 6.35937C12.2656 7.7578 12.3672 8.0703 12.9219 8.39843C13.2188 8.5703 13.3438 8.59374 14.0703 8.59374C15.0469 8.59374 15.2344 8.49218 15.2344 7.96874C15.2344 7.49218 14.9844 7.34374 14.1641 7.34374H13.5078L13.5312 6.30468L13.5547 5.27343H19.6484H25.7422V6.28905V7.30468L21.4297 7.34374C17.2422 7.3828 17.1094 7.39062 16.9609 7.53905C16.7188 7.78905 16.7188 8.20312 16.9531 8.43749C17.1094 8.59374 17.2109 8.59374 21.5234 8.59374C26.3281 8.59374 26.2422 8.60155 26.6484 8.15624C26.9688 7.80468 27.0312 7.49218 27.0312 6.29687C27.0234 4.80468 26.8828 4.43749 26.2109 4.1328C25.9141 3.99218 25.5469 3.98437 19.6484 3.98437C13.7344 3.98437 13.3828 3.99218 13.0859 4.1328Z" fill="#4BB08C"/>
<path d="M30.6633 12.9141C30.1789 13.0781 29.9992 13.1953 29.4992 13.6641L29.0461 14.1016H27.9367C26.9445 14.1016 26.8039 14.1172 26.507 14.2812C25.7805 14.6641 25.3742 15.2656 25.2336 16.1406C25.1164 16.8828 24.9758 17.0938 24.3742 17.3984C22.9914 18.1016 22.507 19.4844 23.1945 20.7891C23.5383 21.4453 23.5383 21.7188 23.2024 22.3828C22.9524 22.875 22.9289 22.9844 22.9289 23.5938C22.9289 24.1562 22.9602 24.3125 23.1399 24.6484C23.4055 25.1562 23.718 25.4453 24.3586 25.7812C24.968 26.1016 25.1164 26.3125 25.2336 27.0625C25.2805 27.3516 25.382 27.7266 25.468 27.8906C25.7024 28.3438 26.3508 28.8906 26.843 29.0312L27.2649 29.1484V31.9766C27.2649 34.5859 27.2727 34.8281 27.4133 35.0781C27.6008 35.4453 28.0617 35.7031 28.5227 35.7031C28.8508 35.7031 29.0305 35.6172 30.1242 34.9531L31.3508 34.2109L32.3352 34.8125C33.7961 35.7109 33.8039 35.7188 34.2805 35.6797C34.718 35.6484 34.9914 35.4922 35.2649 35.125C35.4211 34.9219 35.4289 34.7969 35.4524 32.0312L35.4758 29.1484L35.7649 29.0703C36.2024 28.9453 36.757 28.5625 37.0305 28.1953C37.2883 27.8359 37.4992 27.2266 37.4992 26.8359C37.4992 26.4375 37.7961 26.0859 38.4367 25.7344C39.3899 25.2188 39.8117 24.5078 39.7961 23.4609C39.7883 23.0703 39.7336 22.8672 39.507 22.3906C39.343 22.0703 39.218 21.7109 39.218 21.5938C39.218 21.4766 39.3508 21.1172 39.507 20.7969C39.7492 20.3047 39.7961 20.1328 39.7961 19.6953C39.8039 18.6562 39.3742 17.9688 38.3977 17.4375C37.7492 17.0859 37.5383 16.8125 37.4758 16.2109C37.382 15.2891 36.7336 14.4453 35.9211 14.1719C35.593 14.0625 35.3664 14.0547 34.6789 14.0938C33.7024 14.1562 33.6477 14.1406 33.1008 13.5938C32.8977 13.3828 32.5695 13.1406 32.3742 13.0391C31.9367 12.8281 31.1086 12.7656 30.6633 12.9141ZM31.8508 14.2188C31.9914 14.3047 32.2258 14.5078 32.3742 14.6719C32.5227 14.8359 32.8117 15.0547 33.0227 15.1562C33.3664 15.3359 33.4836 15.3516 34.4524 15.3516C35.3352 15.3516 35.5461 15.375 35.7258 15.4922C36.0461 15.6953 36.1711 15.9531 36.257 16.5234C36.3899 17.4766 36.8352 18.0781 37.7414 18.5391C38.1555 18.7422 38.2727 18.8516 38.4211 19.1406C38.6399 19.5703 38.6086 19.7969 38.257 20.4375C38.0305 20.8594 38.007 20.9531 38.007 21.6016C38.007 22.25 38.0305 22.3438 38.257 22.7422C38.6086 23.3594 38.6399 23.6328 38.4211 24.0625C38.2727 24.3438 38.1477 24.4531 37.7336 24.6719C36.8039 25.1484 36.3899 25.6953 36.257 26.6641C36.1711 27.2734 35.9367 27.6484 35.5383 27.8125C35.343 27.8984 35.1633 27.8984 34.6555 27.8281C33.593 27.6797 33.1164 27.8359 32.3039 28.5938C31.5383 29.3047 31.1242 29.3125 30.4133 28.625C29.6633 27.8906 29.0149 27.6797 27.9992 27.8281C27.0383 27.9766 26.6399 27.6797 26.4445 26.6875C26.2414 25.5938 25.9758 25.2188 25.0383 24.7109C24.4289 24.375 24.1399 24.0234 24.1399 23.6172C24.1399 23.4688 24.2649 23.0859 24.4289 22.75C24.6867 22.2344 24.718 22.0859 24.718 21.6016C24.718 21.1172 24.6867 20.9688 24.4289 20.4531C24.2649 20.1172 24.1399 19.7344 24.1399 19.5859C24.1399 19.1797 24.4289 18.8281 25.0383 18.4922C25.9289 18.0156 26.2649 17.5391 26.4445 16.5C26.5305 16 26.5852 15.875 26.8274 15.6328L27.1164 15.3516L28.1242 15.375C29.343 15.4062 29.6477 15.3047 30.3117 14.6484C30.9367 14.0391 31.3586 13.9141 31.8508 14.2188ZM29.1242 29.1953C29.2258 29.2578 29.4289 29.4453 29.5774 29.6094C30.0149 30.0938 30.6164 30.3438 31.3274 30.3516C32.0695 30.3516 32.5149 30.1562 33.1164 29.5781C33.4992 29.2188 34.0852 28.8984 34.1867 29C34.2024 29.0234 34.2102 30.2578 34.2024 31.7422L34.1789 34.4531L32.9758 33.7109C31.343 32.7031 31.3899 32.7031 29.7336 33.7109L28.5149 34.4453V31.7109V28.9844L28.7336 29.0312C28.8508 29.0625 29.0227 29.1328 29.1242 29.1953Z" fill="#4BB08C"/>
<path d="M30.2725 16.7657C28.8428 17.0704 27.5537 18.086 26.9053 19.4298C25.6006 22.1251 26.9521 25.3204 29.8193 26.3048C30.3193 26.4689 30.5771 26.5079 31.249 26.5157C32.2256 26.5235 32.7178 26.4142 33.5615 26.0079C34.7334 25.4376 35.6553 24.3673 36.0615 23.1017C36.2334 22.5704 36.2646 22.3126 36.2646 21.6017C36.2725 20.172 35.8115 19.0782 34.8037 18.0782C33.6084 16.8907 31.9443 16.4142 30.2725 16.7657ZM32.1865 18.0157C33.335 18.2735 34.3506 19.1642 34.7881 20.2892C35.624 22.4298 34.2021 24.8595 31.8896 25.2423C29.4287 25.6485 27.2178 23.3048 27.7412 20.8439C28.0303 19.5235 29.1318 18.3751 30.4756 18.0157C31.0303 17.8673 31.5303 17.8673 32.1865 18.0157Z" fill="#4BB08C"/>
<path d="M4.8125 14.3047C4.52344 14.5312 4.52344 15 4.8125 15.2266C5.02344 15.3906 5.04688 15.3906 12.7344 15.3906C20.1875 15.3906 20.4609 15.3828 20.6328 15.2422C20.8906 15.0312 20.8906 14.5 20.6328 14.2891C20.4609 14.1484 20.1875 14.1406 12.7344 14.1406C5.04688 14.1406 5.02344 14.1406 4.8125 14.3047Z" fill="#4BB08C"/>
<path d="M4.78148 18.4611C4.57054 18.6877 4.56273 19.0627 4.75804 19.3049L4.90648 19.4924L12.594 19.5158C17.9768 19.5314 20.3362 19.508 20.4768 19.4455C20.8752 19.2893 20.969 18.7736 20.6643 18.4768L20.4768 18.2814H12.7112H4.94554L4.78148 18.4611Z" fill="#4BB08C"/>
<path d="M4.95403 22.4531C4.57903 22.6172 4.47747 23.1484 4.76653 23.4375C4.92278 23.5938 5.02434 23.5938 12.7275 23.5938H20.54L20.6962 23.3906C20.915 23.1172 20.8993 22.8672 20.6728 22.6016L20.4853 22.3828L12.8368 22.3672C6.54778 22.3516 5.15716 22.3672 4.95403 22.4531Z" fill="#4BB08C"/>
<path d="M4.80473 26.6795C4.53129 26.9451 4.5391 27.3514 4.81254 27.5701C5.02348 27.7342 5.04692 27.7342 12.7266 27.7342C21.1875 27.7342 20.711 27.7576 20.8204 27.2733C20.8829 26.9764 20.6954 26.6014 20.4532 26.5311C20.3516 26.5076 16.836 26.4842 12.6329 26.4842H4.99223L4.80473 26.6795Z" fill="#4BB08C"/>
<path d="M4.94473 32.5781C4.57754 32.7266 4.4916 33.2969 4.78848 33.5781L4.96817 33.75H8.99942H13.0385L13.1947 33.5469C13.4682 33.1953 13.3979 32.8047 13.0385 32.6172C12.8588 32.5156 12.2025 32.5 8.96817 32.5078C6.85098 32.5078 5.03848 32.5391 4.94473 32.5781Z" fill="#4BB08C"/>
</g>
<defs>
<clipPath id="clip0_207_10523">
<rect width="40" height="40" fill="white"/>
</clipPath>
</defs>
</svg>
