<svg width="40" height="40" viewBox="0 0 40 40" fill="none" xmlns="http://www.w3.org/2000/svg">
<path d="M25.625 0.25C24.7188 0.539062 24.6094 0.625 24.6094 1.05469C24.6094 1.67969 24.9844 1.78125 26.0938 1.44531C27.1172 1.14062 27.5078 1.19531 28 1.71094C28.1953 1.91406 28.7188 3.57031 32.3594 15.5625C36.0391 27.6797 36.4922 29.2266 36.4609 29.5938C36.4297 30.0234 36.2734 30.3047 35.9297 30.5625C35.8281 30.6406 31.0469 32.1328 25.3125 33.875C13.3984 37.4922 13.0859 37.5859 12.9531 37.5469C12.8984 37.5234 12.7578 37.4922 12.6406 37.4688C12.375 37.4062 11.9844 37.0781 11.8281 36.7891C11.7656 36.6641 10.9922 34.1797 10.1094 31.2734C9.22656 28.3672 8.46875 25.9219 8.42969 25.8438C8.16406 25.3516 7.26562 25.5703 7.26562 26.125C7.26562 26.4219 10.5625 37.1484 10.7656 37.5312C11 37.9609 11.4453 38.3594 11.9609 38.5938L12.3047 38.75L8.3125 38.7266L4.32031 38.7109L4.04688 38.5C3.46875 38.0625 3.51562 39.1016 3.53125 25.8984L3.55469 14.0469L5.10156 19.1484C5.95312 21.9609 6.71094 24.3203 6.77344 24.3906C6.85156 24.4766 7.01562 24.5312 7.20312 24.5312C7.57812 24.5312 7.8125 24.3125 7.8125 23.9609C7.8125 23.7656 5.39062 15.5859 5.09375 14.7734C5.07031 14.7031 5.23438 14.8203 5.45312 15.0234C6.0625 15.5859 6.45312 15.7344 7.34375 15.7422C7.98438 15.7422 8.14844 15.7109 8.51562 15.5391C9.05469 15.2891 9.53906 14.8203 9.82031 14.2812L10.0391 13.8672L10.0625 10.0781L10.0859 6.28906L16.5234 4.34375C20.0703 3.27344 23.0703 2.35156 23.2031 2.29688C23.7422 2.0625 23.6641 1.27344 23.0859 1.125C22.9688 1.09375 20.9766 1.66406 17.4766 2.72656C14.4844 3.63281 11.9922 4.375 11.9297 4.375C11.875 4.375 11.7891 4.29688 11.7422 4.19531C11.6094 3.90625 10.9609 3.23438 10.5625 2.97656C8 1.33594 4.60938 3.17969 4.60938 6.21094V6.625L4.10938 6.79688C3.22656 7.08594 2.65625 7.63281 2.36719 8.46094C2.23438 8.84375 2.22656 9.58594 2.22656 23.4375V38.0078L2.42969 38.4453C2.70312 39.0156 3.09375 39.4453 3.60938 39.7344L4.02344 39.9609H16.4062H28.7891L29.125 39.7812C29.9453 39.3438 30.5469 38.4688 30.5469 37.7188C30.5469 37.4219 30.5078 37.3281 30.3438 37.1953C29.9141 36.8594 29.5 37.0391 29.3281 37.6406C29.1797 38.1484 28.7266 38.6406 28.3438 38.7109C28.2031 38.7344 24.8594 38.7422 20.9062 38.7344L13.7344 38.7109L21.4531 36.375C25.7031 35.0859 29.2266 34.0156 29.2812 34C29.3516 33.9766 29.375 34.1641 29.375 34.7891C29.375 35.5859 29.3828 35.6172 29.5781 35.7734C29.8125 35.9609 29.9844 35.9766 30.2656 35.8516C30.5469 35.7188 30.5781 35.6094 30.625 34.5391L30.6641 33.5703L32.5781 32.9922C36.4531 31.8281 36.4219 31.8359 36.8672 31.4375C37.3516 31 37.6406 30.4688 37.7422 29.8281C37.8438 29.2266 37.8281 29.1875 36.2891 24.125C35.6172 21.9219 33.8203 16 32.2969 10.9766C30.6484 5.52344 29.4375 1.64062 29.2891 1.34375C28.6562 0.0859375 27.3594 -0.296875 25.625 0.25ZM9.50781 3.86719C9.73438 3.96875 10.0781 4.21875 10.2891 4.42188L10.6641 4.79688L10.1641 4.94531C9.67188 5.08594 9.67188 5.08594 9.5 4.92969C8.65625 4.13281 7.11719 4.60938 6.79688 5.77344C6.6875 6.17969 6.69531 12.125 6.80469 12.375C6.91406 12.6172 7.25 12.7578 7.53125 12.6875C7.96875 12.5781 7.96875 12.5859 7.96875 9.20312C7.96875 6.19531 7.97656 6.08594 8.125 5.9375C8.3125 5.75 8.49219 5.74219 8.6875 5.91406C8.82031 6.03125 8.82812 6.25 8.82812 9.69531C8.82812 12.0859 8.79688 13.4219 8.74219 13.5703C8.55469 14.0703 7.89062 14.5312 7.34375 14.5312C6.74219 14.5312 6.10938 14.0469 5.9375 13.4531C5.875 13.2578 5.85938 11.9375 5.875 9.375C5.89844 5.60938 5.89844 5.58594 6.07812 5.19531C6.26562 4.78125 6.75781 4.22656 7.15625 3.98438C7.8125 3.57031 8.75 3.52344 9.50781 3.86719ZM4.60938 10.5234L4.60156 13.0859L4.0625 11.3281C3.76562 10.3594 3.51562 9.42969 3.51562 9.26562C3.51562 8.82812 3.82031 8.33594 4.23438 8.13281C4.42188 8.04688 4.57812 7.96875 4.59375 7.96875C4.60156 7.96875 4.60938 9.11719 4.60938 10.5234Z" fill="#4BB08C"/>
<path d="M15.8914 8.9375C15.5867 9.07031 15.4305 9.42969 15.5008 9.84375C15.5477 10.1328 15.5242 10.1797 15.282 10.3984C15.1336 10.5234 14.9305 10.7891 14.8367 10.9844C14.5008 11.6797 14.7508 12.9609 15.3289 13.4922C15.6649 13.8125 16.1805 13.9766 17.1024 14.0625C18.243 14.1719 18.4774 14.2656 18.6805 14.7266C18.9617 15.3516 18.743 15.7344 18.0008 15.9375C17.6102 16.0469 17.5867 16.0469 16.7508 15.7031C16.2508 15.4922 15.8367 15.8203 15.8367 16.4219C15.8367 16.6953 15.8836 16.7891 16.118 17C16.4149 17.2734 17.0399 17.5 17.5086 17.5C17.7508 17.5 17.8055 17.5312 17.8914 17.7344C18.0242 18.0625 18.2586 18.2031 18.657 18.2031C19.1414 18.2031 19.3914 17.9219 19.368 17.3984C19.3445 17.0547 19.368 17 19.5945 16.8281C20.4383 16.1641 20.5555 14.6562 19.8445 13.5859C19.3992 12.9141 18.9149 12.6953 17.5242 12.5469C16.532 12.4453 16.368 12.375 16.243 12.0391C16.1258 11.7422 16.2899 11.4375 16.6727 11.25C16.9305 11.125 17.157 11.0938 17.7117 11.0938C18.3914 11.0938 18.4383 11.0859 18.5867 10.8906C18.8211 10.5938 18.8055 10.0859 18.5633 9.85156C18.3367 9.64062 17.7664 9.51562 17.3367 9.57812C17.0867 9.61719 17.032 9.60938 17.032 9.5C17.032 9.30469 16.6258 8.90625 16.368 8.86719C16.243 8.84375 16.0242 8.875 15.8914 8.9375Z" fill="#4BB08C"/>
<path d="M20.4291 19.4531C16.0931 20.7734 12.2806 21.9375 11.9681 22.0234C11.4525 22.1797 11.3822 22.2188 11.2806 22.4609C11.1009 22.8906 11.3588 23.3516 11.7806 23.3594C11.9213 23.3594 26.6869 18.9297 28.6166 18.3125C29.2728 18.1016 29.476 17.6719 29.1322 17.2344C28.9994 17.0703 28.9135 17.0312 28.6478 17.0391C28.4681 17.0469 24.8119 18.1172 20.4291 19.4531Z" fill="#4BB08C"/>
<path d="M21.6018 22.6328C17.3049 23.9375 13.4924 25.1016 13.1409 25.2109C12.7815 25.3203 12.4143 25.4844 12.3362 25.5703C12.0002 25.9375 12.2893 26.5625 12.7893 26.5625C12.9924 26.5625 27.3206 22.2891 29.7112 21.5078C30.0159 21.4141 30.1174 21.3359 30.2034 21.125C30.3831 20.6875 30.0706 20.2187 29.6096 20.2422C29.5002 20.25 25.8987 21.3203 21.6018 22.6328Z" fill="#4BB08C"/>
<path d="M21.8359 26.1016C16.2656 27.7969 13.3672 28.7188 13.3047 28.8047C13.25 28.875 13.2031 29.0703 13.2031 29.2266C13.2031 29.4531 13.25 29.5547 13.4062 29.6797C13.5234 29.7734 13.6797 29.8438 13.7656 29.8438C13.9141 29.8438 30.1016 24.9609 30.7656 24.7188C31.1328 24.5859 31.25 24.4219 31.25 24.0703C31.25 23.7188 31.0078 23.5156 30.6094 23.5234C30.4141 23.5312 26.7188 24.6172 21.8359 26.1016Z" fill="#4BB08C"/>
<path d="M30.0391 27.1484C29.3125 27.375 25.5625 28.5156 21.7188 29.6797C17.875 30.8437 14.6328 31.8359 14.5234 31.8828C14.3125 31.9687 14.1406 32.2422 14.1406 32.4922C14.1406 32.7656 14.4453 33.0469 14.7422 33.0469C14.9453 33.0469 29.1328 28.8125 31.6641 28C32.2578 27.8047 32.4297 27.2734 32.0312 26.875C31.8047 26.6484 31.5312 26.6875 30.0391 27.1484Z" fill="#4BB08C"/>
</svg>
